<svg id="svg" version="1.1" xmlns="http://www.w3.org/2000/svg" xmlns:xlink="http://www.w3.org/1999/xlink" width="400" height="400" viewBox="0, 0, 400,400"><g id="svgg"><path id="path0" d="M190.234 41.632 C 182.022 42.071,167.437 44.367,160.547 46.307 C 159.365 46.640,157.472 47.166,156.340 47.477 C 153.656 48.213,143.890 51.474,142.383 52.138 C 141.738 52.422,139.629 53.313,137.695 54.118 C 101.161 69.326,69.326 101.161,54.118 137.695 C 53.313 139.629,52.422 141.738,52.138 142.383 C 51.474 143.890,48.213 153.656,47.477 156.340 C 47.166 157.472,46.640 159.365,46.307 160.547 C 44.949 165.372,43.378 174.101,42.125 183.789 C 41.444 189.052,41.444 210.948,42.125 216.211 C 43.378 225.899,44.949 234.628,46.307 239.453 C 46.640 240.635,47.166 242.528,47.477 243.660 C 48.213 246.344,51.474 256.110,52.138 257.617 C 52.422 258.262,53.313 260.371,54.118 262.305 C 69.326 298.839,101.161 330.674,137.695 345.882 C 139.629 346.687,141.738 347.578,142.383 347.862 C 143.890 348.526,153.656 351.787,156.340 352.523 C 157.472 352.834,159.365 353.360,160.547 353.693 C 165.372 355.051,174.101 356.622,183.789 357.875 C 189.052 358.556,210.948 358.556,216.211 357.875 C 225.899 356.622,234.628 355.051,239.453 353.693 C 240.635 353.360,242.528 352.834,243.660 352.523 C 246.344 351.787,256.110 348.526,257.617 347.862 C 258.262 347.578,260.371 346.687,262.305 345.882 C 298.839 330.674,330.674 298.839,345.882 262.305 C 346.687 260.371,347.578 258.262,347.862 257.617 C 348.526 256.110,351.787 246.344,352.523 243.660 C 352.834 242.528,353.360 240.635,353.693 239.453 C 355.051 234.628,356.622 225.899,357.875 216.211 C 358.556 210.948,358.556 189.052,357.875 183.789 C 356.622 174.101,355.051 165.372,353.693 160.547 C 353.360 159.365,352.834 157.472,352.523 156.340 C 351.787 153.656,348.526 143.890,347.862 142.383 C 347.578 141.738,346.687 139.629,345.882 137.695 C 330.674 101.161,298.839 69.326,262.305 54.118 C 260.371 53.313,258.262 52.422,257.617 52.138 C 256.110 51.474,246.344 48.213,243.660 47.477 C 242.528 47.166,240.635 46.639,239.453 46.305 C 236.391 45.440,226.603 43.524,222.461 42.978 C 220.527 42.724,217.715 42.346,216.212 42.138 C 213.414 41.751,194.799 41.389,190.234 41.632 M213.086 50.966 C 242.953 53.886,267.330 63.378,291.211 81.389 C 300.690 88.537,311.310 99.167,318.684 108.887 L 321.129 112.109 310.369 112.109 L 299.609 112.109 299.609 160.574 L 299.609 209.039 302.090 212.625 C 307.051 219.796,314.461 233.594,314.454 235.649 C 314.454 235.812,314.792 236.691,315.207 237.602 C 317.741 243.166,321.092 256.636,322.470 266.797 C 322.777 269.057,323.810 281.472,323.819 283.008 C 323.839 286.271,306.995 305.691,296.680 314.299 C 280.575 327.738,260.664 338.406,241.602 343.809 C 214.422 351.513,185.578 351.513,158.398 343.809 C 139.336 338.406,119.425 327.738,103.320 314.299 C 93.005 305.691,76.161 286.271,76.181 283.008 C 76.190 281.472,77.223 269.057,77.530 266.797 C 78.908 256.636,82.259 243.166,84.793 237.602 C 85.208 236.691,85.546 235.812,85.546 235.649 C 85.539 233.594,92.949 219.796,97.910 212.625 L 100.391 209.039 100.391 160.574 L 100.391 112.109 89.631 112.109 L 78.871 112.109 81.316 108.887 C 97.209 87.938,119.701 70.961,145.117 60.727 C 157.838 55.605,171.457 52.460,188.086 50.806 C 193.423 50.274,206.898 50.361,213.086 50.966 M111.328 154.345 C 111.328 195.785,111.342 196.570,112.071 196.044 C 112.480 195.749,114.545 194.043,116.661 192.253 C 124.711 185.441,135.842 178.659,145.898 174.438 C 146.758 174.077,148.076 173.485,148.828 173.121 L 150.195 172.459 150.295 142.284 L 150.395 112.109 130.862 112.109 L 111.328 112.109 111.328 154.345 M161.328 140.651 C 161.328 167.652,161.365 169.182,162.012 168.987 C 163.148 168.645,170.752 166.906,173.047 166.464 C 178.031 165.504,186.959 164.455,190.199 164.448 C 191.615 164.445,193.169 164.336,193.652 164.207 L 194.531 163.971 194.531 138.040 L 194.531 112.109 177.930 112.109 L 161.328 112.109 161.328 140.651 M205.469 138.040 L 205.469 163.971 206.348 164.207 C 206.831 164.336,208.385 164.445,209.801 164.448 C 213.041 164.455,221.969 165.504,226.953 166.464 C 229.248 166.906,236.852 168.645,237.988 168.987 C 238.635 169.182,238.672 167.652,238.672 140.651 L 238.672 112.109 222.070 112.109 L 205.469 112.109 205.469 138.040 M249.705 142.284 L 249.805 172.459 251.172 173.121 C 251.924 173.485,253.242 174.077,254.102 174.438 C 265.195 179.094,275.843 185.748,285.462 194.034 C 287.026 195.382,288.476 196.484,288.684 196.484 C 289.115 196.484,289.220 128.274,288.805 118.262 L 288.550 112.109 269.077 112.109 L 249.605 112.109 249.705 142.284 " stroke="none" fill="#fbe484" fill-rule="evenodd"></path><path id="path1" d="M195.996 41.307 C 198.198 41.377,201.802 41.377,204.004 41.307 C 206.206 41.237,204.404 41.180,200.000 41.180 C 195.596 41.180,193.794 41.237,195.996 41.307 M187.402 41.689 C 188.101 41.775,189.243 41.775,189.941 41.689 C 190.640 41.602,190.068 41.531,188.672 41.531 C 187.275 41.531,186.704 41.602,187.402 41.689 M210.059 41.689 C 210.757 41.775,211.899 41.775,212.598 41.689 C 213.296 41.602,212.725 41.531,211.328 41.531 C 209.932 41.531,209.360 41.602,210.059 41.689 M182.520 42.066 C 182.896 42.164,183.511 42.164,183.887 42.066 C 184.263 41.968,183.955 41.888,183.203 41.888 C 182.451 41.888,182.144 41.968,182.520 42.066 M216.113 42.066 C 216.489 42.164,217.104 42.164,217.480 42.066 C 217.856 41.968,217.549 41.888,216.797 41.888 C 216.045 41.888,215.737 41.968,216.113 42.066 M179.594 42.464 C 180.080 42.557,180.783 42.554,181.157 42.456 C 181.530 42.358,181.133 42.282,180.273 42.286 C 179.414 42.290,179.108 42.370,179.594 42.464 M219.048 42.464 C 219.533 42.557,220.237 42.554,220.610 42.456 C 220.983 42.358,220.586 42.282,219.727 42.286 C 218.867 42.290,218.562 42.370,219.048 42.464 M196.191 50.682 C 198.286 50.752,201.714 50.752,203.809 50.682 C 205.903 50.612,204.189 50.554,200.000 50.554 C 195.811 50.554,194.097 50.612,196.191 50.682 M188.574 51.057 C 189.058 51.150,189.849 51.150,190.332 51.057 C 190.815 50.964,190.420 50.888,189.453 50.888 C 188.486 50.888,188.091 50.964,188.574 51.057 M209.668 51.057 C 210.151 51.150,210.942 51.150,211.426 51.057 C 211.909 50.964,211.514 50.888,210.547 50.888 C 209.580 50.888,209.185 50.964,209.668 51.057 M183.891 51.448 C 184.377 51.542,185.080 51.538,185.454 51.440 C 185.827 51.342,185.430 51.266,184.570 51.270 C 183.711 51.275,183.405 51.355,183.891 51.448 M214.751 51.448 C 215.237 51.542,215.940 51.538,216.313 51.440 C 216.687 51.342,216.289 51.266,215.430 51.270 C 214.570 51.275,214.265 51.355,214.751 51.448 M177.441 52.222 C 177.817 52.321,178.433 52.321,178.809 52.222 C 179.185 52.124,178.877 52.044,178.125 52.044 C 177.373 52.044,177.065 52.124,177.441 52.222 M221.191 52.222 C 221.567 52.321,222.183 52.321,222.559 52.222 C 222.935 52.124,222.627 52.044,221.875 52.044 C 221.123 52.044,220.815 52.124,221.191 52.222 M123.242 60.732 C 122.383 61.261,121.801 61.700,121.950 61.707 C 122.289 61.722,125.000 60.136,125.000 59.922 C 125.000 59.668,124.879 59.724,123.242 60.732 M275.000 59.897 C 275.000 60.162,277.807 61.777,277.975 61.609 C 278.052 61.531,277.415 61.073,276.558 60.591 C 275.701 60.110,275.000 59.797,275.000 59.897 M112.207 67.390 C 110.435 68.560,108.984 69.617,108.984 69.739 C 108.984 69.861,109.210 69.820,109.486 69.648 C 113.097 67.401,116.189 65.150,115.527 65.249 C 115.474 65.257,113.979 66.221,112.207 67.390 M284.375 65.415 C 284.375 65.594,289.421 69.023,290.611 69.653 C 290.941 69.828,290.733 69.564,290.148 69.068 C 288.910 68.015,284.375 65.146,284.375 65.415 M107.227 70.933 L 106.055 71.940 107.324 71.099 C 108.022 70.637,108.594 70.183,108.594 70.091 C 108.594 69.798,108.428 69.900,107.227 70.933 M291.406 70.064 C 291.406 70.171,291.934 70.635,292.578 71.094 C 293.223 71.553,293.750 71.840,293.750 71.733 C 293.750 71.625,293.223 71.162,292.578 70.703 C 291.934 70.244,291.406 69.957,291.406 70.064 M104.297 73.095 C 102.936 74.288,102.935 74.290,104.187 73.456 C 104.879 72.996,105.549 72.452,105.675 72.247 C 106.052 71.638,105.740 71.830,104.297 73.095 M294.281 72.177 C 294.590 72.677,296.875 74.368,296.875 74.096 C 296.875 74.000,296.230 73.429,295.441 72.827 C 294.652 72.225,294.130 71.933,294.281 72.177 M96.261 79.596 C 94.957 80.828,94.335 81.484,94.879 81.055 C 96.315 79.921,99.057 77.352,98.828 77.354 C 98.721 77.356,97.566 78.364,96.261 79.596 M112.402 78.724 C 111.382 79.473,110.547 80.172,110.547 80.277 C 110.547 80.382,111.426 79.836,112.500 79.064 C 114.169 77.865,114.769 77.312,114.355 77.353 C 114.302 77.359,113.423 77.976,112.402 78.724 M285.547 77.484 C 285.547 77.581,286.444 78.306,287.541 79.094 C 288.637 79.881,289.419 80.340,289.279 80.112 C 288.985 79.636,285.547 77.215,285.547 77.484 M302.554 78.750 C 304.835 80.953,306.415 82.295,306.119 81.778 C 305.978 81.532,304.764 80.407,303.420 79.279 C 301.990 78.078,301.631 77.859,302.554 78.750 M108.366 81.864 L 106.836 83.260 108.496 81.994 C 110.013 80.838,110.383 80.469,110.026 80.469 C 109.954 80.469,109.207 81.097,108.366 81.864 M289.844 80.572 C 289.844 80.658,290.591 81.322,291.504 82.048 C 292.417 82.774,292.916 83.058,292.613 82.681 C 292.042 81.970,289.844 80.296,289.844 80.572 M87.495 87.793 L 82.227 93.164 87.598 87.896 C 90.552 84.999,92.969 82.582,92.969 82.525 C 92.969 82.245,92.388 82.804,87.495 87.793 M312.104 87.598 C 315.001 90.552,317.418 92.969,317.475 92.969 C 317.755 92.969,317.196 92.388,312.207 87.495 L 306.836 82.227 312.104 87.598 M104.481 84.991 L 102.539 86.779 104.590 85.125 C 106.430 83.642,106.873 83.203,106.532 83.203 C 106.473 83.203,105.550 84.008,104.481 84.991 M293.359 83.304 C 293.359 83.396,294.282 84.241,295.410 85.182 C 296.538 86.123,297.214 86.583,296.913 86.205 C 296.307 85.445,293.359 83.039,293.359 83.304 M100.451 88.321 C 99.732 88.974,99.217 89.581,99.306 89.670 C 99.395 89.759,100.061 89.219,100.787 88.471 C 102.408 86.798,102.219 86.713,100.451 88.321 M299.192 88.374 C 299.929 89.176,300.618 89.747,300.722 89.643 C 300.826 89.538,300.837 89.409,300.747 89.355 C 300.656 89.302,299.968 88.731,299.217 88.087 L 297.852 86.916 299.192 88.374 M94.134 94.434 L 89.648 99.023 94.238 94.538 C 98.502 90.371,99.005 89.844,98.724 89.844 C 98.667 89.844,96.601 91.909,94.134 94.434 M305.469 94.336 C 307.932 96.807,310.036 98.828,310.144 98.828 C 310.251 98.828,308.323 96.807,305.859 94.336 C 303.396 91.865,301.292 89.844,301.185 89.844 C 301.077 89.844,303.005 91.865,305.469 94.336 M80.638 95.020 C 78.522 97.344,77.394 98.805,78.906 97.263 C 80.896 95.234,82.195 93.750,81.981 93.750 C 81.878 93.750,81.274 94.321,80.638 95.020 M318.750 94.746 C 321.026 97.362,322.635 98.859,320.721 96.580 C 319.593 95.236,318.468 94.022,318.222 93.881 C 317.975 93.739,318.213 94.129,318.750 94.746 M88.107 100.712 L 86.956 102.148 88.400 100.802 C 89.892 99.411,90.049 99.199,89.551 99.247 C 89.390 99.262,88.740 99.922,88.107 100.712 M311.328 100.586 C 312.057 101.338,312.724 101.953,312.810 101.953 C 313.138 101.953,310.725 99.274,310.373 99.247 C 310.169 99.231,310.599 99.834,311.328 100.586 M85.511 103.809 C 83.838 105.675,83.076 106.641,83.277 106.641 C 83.384 106.641,84.213 105.762,85.118 104.688 C 86.860 102.622,87.143 101.988,85.511 103.809 M314.818 104.590 C 315.759 105.718,316.604 106.641,316.696 106.641 C 316.961 106.641,314.555 103.693,313.795 103.087 C 313.417 102.786,313.877 103.462,314.818 104.590 M72.827 104.559 C 72.225 105.348,71.933 105.870,72.177 105.719 C 72.677 105.410,74.368 103.125,74.096 103.125 C 74.000 103.125,73.429 103.770,72.827 104.559 M326.554 104.285 C 327.008 104.923,327.580 105.568,327.823 105.719 C 328.067 105.870,327.775 105.348,327.173 104.559 C 325.867 102.847,325.375 102.629,326.554 104.285 M70.703 107.422 C 70.244 108.066,69.957 108.594,70.064 108.594 C 70.171 108.594,70.635 108.066,71.094 107.422 C 71.553 106.777,71.840 106.250,71.733 106.250 C 71.625 106.250,71.162 106.777,70.703 107.422 M328.906 107.422 C 329.365 108.066,329.829 108.594,329.936 108.594 C 330.043 108.594,329.756 108.066,329.297 107.422 C 328.838 106.777,328.375 106.250,328.267 106.250 C 328.160 106.250,328.447 106.777,328.906 107.422 M82.178 107.910 C 81.025 109.226,80.351 110.156,80.551 110.156 C 80.649 110.156,81.294 109.453,81.984 108.594 C 83.325 106.925,83.461 106.447,82.178 107.910 M317.952 108.496 C 318.678 109.409,319.342 110.156,319.428 110.156 C 319.704 110.156,318.030 107.958,317.319 107.387 C 316.942 107.084,317.226 107.583,317.952 108.496 M68.436 110.645 C 66.609 113.322,65.210 115.625,65.411 115.625 C 65.562 115.625,68.268 111.704,69.648 109.486 C 70.438 108.217,69.445 109.166,68.436 110.645 M330.347 109.389 C 330.977 110.579,334.406 115.625,334.585 115.625 C 334.854 115.625,331.985 111.090,330.932 109.852 C 330.436 109.267,330.172 109.059,330.347 109.389 M100.487 160.558 C 100.399 204.946,100.334 209.286,99.748 210.167 L 99.106 211.133 99.945 210.339 L 100.784 209.546 100.684 160.730 L 100.583 111.914 100.487 160.558 M111.033 154.395 C 110.931 199.703,110.870 198.196,112.732 195.996 C 113.476 195.118,113.476 195.118,112.665 195.801 C 112.218 196.177,111.735 196.484,111.592 196.484 C 111.449 196.484,111.286 177.456,111.230 154.199 L 111.129 111.914 111.033 154.395 M150.486 142.266 C 150.397 170.702,150.347 172.643,149.707 173.016 C 149.331 173.235,149.222 173.419,149.464 173.426 C 150.751 173.460,150.787 172.556,150.684 142.145 L 150.581 111.914 150.486 142.266 M161.033 140.723 C 160.943 167.937,160.975 169.531,161.621 169.525 C 162.106 169.521,162.163 169.430,161.819 169.211 C 161.441 168.971,161.311 162.606,161.230 140.408 L 161.128 111.914 161.033 140.723 M194.716 138.281 C 194.716 152.783,194.765 158.716,194.824 151.465 C 194.884 144.214,194.884 132.349,194.824 125.098 C 194.765 117.847,194.716 123.779,194.716 138.281 M205.263 138.281 C 205.263 152.783,205.311 158.716,205.371 151.465 C 205.430 144.214,205.430 132.349,205.371 125.098 C 205.311 117.847,205.263 123.779,205.263 138.281 M238.672 140.592 C 238.672 163.013,238.568 169.117,238.184 169.273 C 237.892 169.390,237.971 169.482,238.379 169.500 C 239.024 169.530,239.063 167.915,239.063 140.820 C 239.063 125.029,238.975 112.109,238.867 112.109 C 238.760 112.109,238.672 124.927,238.672 140.592 M249.314 142.207 C 249.218 172.826,249.242 173.438,250.543 173.438 C 250.756 173.438,250.633 173.218,250.270 172.949 C 249.661 172.499,249.601 170.096,249.509 142.188 L 249.409 111.914 249.314 142.207 M288.816 116.016 C 288.816 118.271,288.881 119.194,288.960 118.066 C 289.039 116.938,289.039 115.093,288.960 113.965 C 288.881 112.837,288.816 113.760,288.816 116.016 M299.313 160.779 L 299.219 209.645 300.091 210.389 C 300.947 211.119,300.953 211.119,300.384 210.389 C 299.882 209.744,299.778 203.161,299.606 160.780 L 299.408 111.914 299.313 160.779 M60.591 123.442 C 60.110 124.299,59.797 125.000,59.897 125.000 C 60.162 125.000,61.777 122.193,61.609 122.025 C 61.531 121.948,61.073 122.585,60.591 123.442 M338.287 121.950 C 338.279 122.304,339.871 125.000,340.088 125.000 C 340.179 125.000,339.993 124.517,339.673 123.926 C 338.877 122.456,338.294 121.625,338.287 121.950 M188.191 164.736 C 188.893 164.823,189.947 164.821,190.534 164.732 C 191.121 164.643,190.547 164.572,189.258 164.574 C 187.969 164.576,187.488 164.649,188.191 164.736 M209.675 164.736 C 210.377 164.823,211.432 164.821,212.019 164.732 C 212.606 164.643,212.031 164.572,210.742 164.574 C 209.453 164.576,208.973 164.649,209.675 164.736 M184.473 165.113 C 184.849 165.211,185.464 165.211,185.840 165.113 C 186.216 165.015,185.908 164.934,185.156 164.934 C 184.404 164.934,184.097 165.015,184.473 165.113 M214.160 165.113 C 214.536 165.211,215.151 165.211,215.527 165.113 C 215.903 165.015,215.596 164.934,214.844 164.934 C 214.092 164.934,213.784 165.015,214.160 165.113 M180.566 165.504 C 180.942 165.602,181.558 165.602,181.934 165.504 C 182.310 165.405,182.002 165.325,181.250 165.325 C 180.498 165.325,180.190 165.405,180.566 165.504 M218.066 165.504 C 218.442 165.602,219.058 165.602,219.434 165.504 C 219.810 165.405,219.502 165.325,218.750 165.325 C 217.998 165.325,217.690 165.405,218.066 165.504 M145.313 174.805 C 144.775 175.112,144.512 175.363,144.727 175.363 C 144.941 175.363,145.557 175.112,146.094 174.805 C 146.631 174.498,146.895 174.246,146.680 174.246 C 146.465 174.246,145.850 174.498,145.313 174.805 M253.906 174.805 C 254.443 175.112,255.059 175.363,255.273 175.363 C 255.488 175.363,255.225 175.112,254.688 174.805 C 254.150 174.498,253.535 174.246,253.320 174.246 C 253.105 174.246,253.369 174.498,253.906 174.805 M42.286 180.273 C 42.290 181.133,42.370 181.438,42.464 180.952 C 42.557 180.467,42.554 179.763,42.456 179.390 C 42.358 179.017,42.282 179.414,42.286 180.273 M357.520 180.273 C 357.525 181.133,357.605 181.438,357.698 180.952 C 357.792 180.467,357.788 179.763,357.690 179.390 C 357.592 179.017,357.516 179.414,357.520 180.273 M134.668 179.911 C 133.208 180.703,133.297 181.033,134.766 180.273 C 135.410 179.940,135.938 179.584,135.938 179.482 C 135.938 179.231,135.896 179.245,134.668 179.911 M264.063 179.472 C 264.063 179.580,264.590 179.940,265.234 180.273 C 265.879 180.607,266.406 180.792,266.406 180.684 C 266.406 180.577,265.879 180.216,265.234 179.883 C 264.590 179.550,264.063 179.365,264.063 179.472 M41.888 183.203 C 41.888 183.955,41.968 184.263,42.066 183.887 C 42.164 183.511,42.164 182.896,42.066 182.520 C 41.968 182.144,41.888 182.451,41.888 183.203 M357.903 183.203 C 357.903 183.955,357.984 184.263,358.082 183.887 C 358.180 183.511,358.180 182.896,358.082 182.520 C 357.984 182.144,357.903 182.451,357.903 183.203 M127.832 184.029 C 126.501 184.882,126.070 185.455,127.246 184.808 C 128.142 184.315,129.546 183.230,129.297 183.222 C 129.189 183.219,128.530 183.582,127.832 184.029 M271.289 183.796 C 271.719 184.146,272.422 184.605,272.852 184.816 L 273.633 185.199 272.852 184.563 C 272.422 184.213,271.719 183.755,271.289 183.544 L 270.508 183.160 271.289 183.796 M124.316 186.367 C 123.403 187.014,122.656 187.630,122.656 187.735 C 122.656 187.841,123.447 187.384,124.414 186.719 C 125.381 186.054,126.172 185.430,126.172 185.333 C 126.172 185.064,126.098 185.105,124.316 186.367 M273.828 185.314 C 273.828 185.421,274.619 186.054,275.586 186.719 C 276.553 187.384,277.344 187.840,277.344 187.733 C 277.344 187.625,276.553 186.993,275.586 186.328 C 274.619 185.663,273.828 185.207,273.828 185.314 M41.531 188.672 C 41.531 190.068,41.602 190.640,41.689 189.941 C 41.775 189.243,41.775 188.101,41.689 187.402 C 41.602 186.704,41.531 187.275,41.531 188.672 M358.328 188.672 C 358.328 190.068,358.399 190.640,358.486 189.941 C 358.572 189.243,358.572 188.101,358.486 187.402 C 358.399 186.704,358.328 187.275,358.328 188.672 M41.180 200.000 C 41.180 204.404,41.237 206.206,41.307 204.004 C 41.377 201.802,41.377 198.198,41.307 195.996 C 41.237 193.794,41.180 195.596,41.180 200.000 M115.213 193.652 L 113.867 195.117 115.332 193.771 C 116.138 193.031,116.797 192.371,116.797 192.306 C 116.797 192.008,116.466 192.289,115.213 193.652 M284.375 193.555 C 285.104 194.307,285.788 194.922,285.895 194.922 C 286.003 194.922,285.494 194.307,284.766 193.555 C 284.037 192.803,283.353 192.188,283.245 192.188 C 283.138 192.188,283.646 192.803,284.375 193.555 M358.759 200.000 C 358.759 204.404,358.815 206.206,358.885 204.004 C 358.955 201.802,358.955 198.198,358.885 195.996 C 358.815 193.794,358.759 195.596,358.759 200.000 M41.531 211.328 C 41.531 212.725,41.602 213.296,41.689 212.598 C 41.775 211.899,41.775 210.757,41.689 210.059 C 41.602 209.360,41.531 209.932,41.531 211.328 M358.328 211.328 C 358.328 212.725,358.399 213.296,358.486 212.598 C 358.572 211.899,358.572 210.757,358.486 210.059 C 358.399 209.360,358.328 209.932,358.328 211.328 M97.580 213.184 C 96.068 215.306,94.215 218.357,94.793 217.773 C 95.377 217.183,99.262 211.328,99.069 211.328 C 98.977 211.328,98.307 212.163,97.580 213.184 M302.792 214.355 C 305.091 217.786,306.051 218.935,304.668 216.602 C 303.518 214.660,301.156 211.328,300.931 211.328 C 300.839 211.328,301.676 212.690,302.792 214.355 M41.888 216.797 C 41.888 217.549,41.968 217.856,42.066 217.480 C 42.164 217.104,42.164 216.489,42.066 216.113 C 41.968 215.737,41.888 216.045,41.888 216.797 M357.903 216.797 C 357.903 217.549,357.984 217.856,358.082 217.480 C 358.180 217.104,358.180 216.489,358.082 216.113 C 357.984 215.737,357.903 216.045,357.903 216.797 M42.286 219.727 C 42.290 220.586,42.370 220.892,42.464 220.406 C 42.557 219.920,42.554 219.217,42.456 218.843 C 42.358 218.470,42.282 218.867,42.286 219.727 M357.520 219.727 C 357.525 220.586,357.605 220.892,357.698 220.406 C 357.792 219.920,357.788 219.217,357.690 218.843 C 357.592 218.470,357.516 218.867,357.520 219.727 M89.433 226.994 C 88.557 228.735,87.904 230.222,87.981 230.299 C 88.059 230.376,88.859 228.952,89.761 227.134 C 90.663 225.316,91.316 223.828,91.212 223.828 C 91.109 223.828,90.308 225.253,89.433 226.994 M310.239 227.134 C 311.141 228.952,311.941 230.376,312.019 230.299 C 312.192 230.126,309.048 223.828,308.788 223.828 C 308.684 223.828,309.337 225.316,310.239 227.134 M81.083 249.051 C 80.939 249.624,80.897 250.168,80.989 250.260 C 81.081 250.352,81.274 249.959,81.417 249.386 C 81.561 248.814,81.603 248.270,81.511 248.178 C 81.419 248.086,81.226 248.479,81.083 249.051 M318.414 248.438 C 318.414 248.760,318.565 249.375,318.750 249.805 C 318.962 250.297,319.086 250.369,319.086 250.000 C 319.086 249.678,318.935 249.063,318.750 248.633 C 318.538 248.140,318.414 248.068,318.414 248.438 M77.825 265.625 C 77.825 266.377,77.905 266.685,78.004 266.309 C 78.102 265.933,78.102 265.317,78.004 264.941 C 77.905 264.565,77.825 264.873,77.825 265.625 M321.966 265.625 C 321.966 266.377,322.046 266.685,322.144 266.309 C 322.243 265.933,322.243 265.317,322.144 264.941 C 322.046 264.565,321.966 264.873,321.966 265.625 M77.060 272.266 C 77.060 273.232,77.136 273.628,77.229 273.145 C 77.322 272.661,77.322 271.870,77.229 271.387 C 77.136 270.903,77.060 271.299,77.060 272.266 M322.763 272.266 C 322.763 273.232,322.839 273.628,322.932 273.145 C 323.025 272.661,323.025 271.870,322.932 271.387 C 322.839 270.903,322.763 271.299,322.763 272.266 M60.591 276.558 C 61.073 277.415,61.531 278.052,61.609 277.975 C 61.777 277.807,60.162 275.000,59.897 275.000 C 59.797 275.000,60.110 275.701,60.591 276.558 M339.085 276.416 C 338.626 277.195,338.313 277.897,338.391 277.975 C 338.469 278.052,338.927 277.415,339.409 276.558 C 340.503 274.612,340.222 274.489,339.085 276.416 M76.680 278.516 C 76.680 279.697,76.753 280.181,76.842 279.590 C 76.932 278.999,76.932 278.032,76.842 277.441 C 76.753 276.851,76.680 277.334,76.680 278.516 M323.164 278.516 C 323.164 279.697,323.237 280.181,323.327 279.590 C 323.416 278.999,323.416 278.032,323.327 277.441 C 323.237 276.851,323.164 277.334,323.164 278.516 M66.698 286.730 C 68.070 288.934,70.353 291.932,69.653 290.611 C 69.023 289.421,65.594 284.375,65.415 284.375 C 65.314 284.375,65.891 285.435,66.698 286.730 M332.533 287.193 C 330.217 290.686,329.763 291.524,330.932 290.148 C 331.985 288.910,334.854 284.375,334.585 284.375 C 334.485 284.375,333.561 285.643,332.533 287.193 M78.502 287.285 C 79.160 288.241,79.884 289.138,80.112 289.279 C 80.340 289.419,79.881 288.637,79.094 287.541 C 77.334 285.092,76.849 284.882,78.502 287.285 M320.906 287.541 C 320.119 288.637,319.660 289.419,319.888 289.279 C 320.364 288.985,322.785 285.547,322.516 285.547 C 322.419 285.547,321.694 286.444,320.906 287.541 M81.205 290.953 C 81.639 291.563,82.304 292.310,82.681 292.613 C 83.058 292.916,82.774 292.417,82.048 291.504 C 80.558 289.629,80.005 289.267,81.205 290.953 M317.952 291.504 C 317.226 292.417,316.942 292.916,317.319 292.613 C 318.030 292.042,319.704 289.844,319.428 289.844 C 319.342 289.844,318.678 290.591,317.952 291.504 M70.703 292.578 C 71.162 293.223,71.625 293.750,71.733 293.750 C 71.840 293.750,71.553 293.223,71.094 292.578 C 70.635 291.934,70.171 291.406,70.064 291.406 C 69.957 291.406,70.244 291.934,70.703 292.578 M328.906 292.578 C 328.447 293.223,328.160 293.750,328.267 293.750 C 328.375 293.750,328.838 293.223,329.297 292.578 C 329.756 291.934,330.043 291.406,329.936 291.406 C 329.829 291.406,329.365 291.934,328.906 292.578 M84.327 294.862 C 84.982 295.688,85.827 296.611,86.205 296.913 C 86.583 297.214,86.123 296.538,85.182 295.410 C 83.209 293.045,82.557 292.626,84.327 294.862 M314.818 295.410 C 313.877 296.538,313.417 297.214,313.795 296.913 C 314.555 296.307,316.961 293.359,316.696 293.359 C 316.604 293.359,315.759 294.282,314.818 295.410 M72.827 295.441 C 73.429 296.230,74.000 296.875,74.096 296.875 C 74.368 296.875,72.677 294.590,72.177 294.281 C 71.933 294.130,72.225 294.652,72.827 295.441 M327.289 294.824 C 326.165 296.181,325.689 296.875,325.882 296.875 C 325.991 296.875,326.548 296.260,327.122 295.508 C 328.186 294.112,328.315 293.586,327.289 294.824 M88.087 299.217 C 88.731 299.968,89.302 300.656,89.355 300.747 C 89.409 300.837,89.538 300.826,89.643 300.722 C 89.747 300.618,89.176 299.929,88.374 299.192 L 86.916 297.852 88.087 299.217 M311.328 299.414 C 310.599 300.166,310.169 300.769,310.373 300.753 C 310.725 300.726,313.138 298.047,312.810 298.047 C 312.724 298.047,312.057 298.662,311.328 299.414 M79.279 303.420 C 80.407 304.764,81.532 305.978,81.778 306.119 C 82.295 306.415,80.953 304.835,78.750 302.554 C 77.859 301.631,78.078 301.990,79.279 303.420 M94.141 305.664 C 96.604 308.135,98.708 310.156,98.815 310.156 C 98.923 310.156,96.995 308.135,94.531 305.664 C 92.068 303.193,89.964 301.172,89.856 301.172 C 89.749 301.172,91.677 303.193,94.141 305.664 M303.906 307.130 C 300.576 310.386,298.486 312.530,299.261 311.896 C 300.876 310.574,310.452 301.168,310.156 301.194 C 310.049 301.203,307.236 303.875,303.906 307.130 M320.896 302.832 C 318.334 305.677,317.758 306.385,318.222 306.119 C 318.739 305.823,322.820 301.172,322.562 301.172 C 322.468 301.172,321.718 301.919,320.896 302.832 M87.495 312.207 C 90.392 315.161,92.809 317.578,92.866 317.578 C 93.146 317.578,92.587 316.998,87.598 312.104 L 82.227 306.836 87.495 312.207 M312.104 312.402 L 306.836 317.773 312.207 312.505 C 317.196 307.612,317.755 307.031,317.475 307.031 C 317.418 307.031,315.001 309.448,312.104 312.402 M99.247 310.449 C 99.262 310.610,99.922 311.260,100.712 311.893 L 102.148 313.044 100.802 311.600 C 99.411 310.108,99.199 309.951,99.247 310.449 M103.087 313.795 C 103.693 314.555,106.641 316.961,106.641 316.696 C 106.641 316.604,105.718 315.759,104.590 314.818 C 103.462 313.877,102.786 313.417,103.087 313.795 M295.117 315.101 C 293.445 316.632,293.394 316.717,294.764 315.686 C 296.210 314.598,297.585 313.258,297.216 313.296 C 297.136 313.305,296.191 314.116,295.117 315.101 M107.387 317.319 C 107.958 318.030,110.156 319.704,110.156 319.428 C 110.156 319.342,109.409 318.678,108.496 317.952 C 107.583 317.226,107.084 316.942,107.387 317.319 M291.211 318.222 C 290.035 319.274,289.947 319.419,290.855 318.812 C 291.935 318.090,293.293 316.774,292.919 316.812 C 292.839 316.820,292.070 317.454,291.211 318.222 M93.881 318.222 C 94.022 318.468,95.236 319.593,96.580 320.721 C 98.010 321.922,98.369 322.141,97.446 321.250 C 95.165 319.047,93.585 317.705,93.881 318.222 M303.516 320.359 L 300.977 322.742 303.420 320.706 C 305.598 318.890,306.535 317.961,306.175 317.973 C 306.109 317.975,304.912 319.049,303.516 320.359 M110.721 319.888 C 111.015 320.364,114.453 322.785,114.453 322.516 C 114.453 322.419,113.556 321.694,112.459 320.906 C 111.363 320.119,110.581 319.660,110.721 319.888 M287.695 320.755 C 285.385 322.484,285.080 322.955,287.187 321.537 C 288.197 320.858,289.130 320.129,289.261 319.917 C 289.604 319.361,289.436 319.451,287.695 320.755 M103.125 325.904 C 103.125 326.000,103.770 326.571,104.559 327.173 C 105.348 327.775,105.870 328.067,105.719 327.823 C 105.410 327.323,103.125 325.632,103.125 325.904 M295.298 326.981 L 293.945 328.181 295.410 327.130 C 296.705 326.201,297.126 325.781,296.763 325.781 C 296.701 325.781,296.042 326.321,295.298 326.981 M106.250 328.267 C 106.250 328.375,106.777 328.838,107.422 329.297 C 108.066 329.756,108.594 330.043,108.594 329.936 C 108.594 329.829,108.066 329.365,107.422 328.906 C 106.777 328.447,106.250 328.160,106.250 328.267 M292.383 329.136 L 291.211 330.143 292.480 329.303 C 293.179 328.840,293.750 328.387,293.750 328.294 C 293.750 328.001,293.585 328.103,292.383 329.136 M109.852 330.932 C 111.090 331.985,115.625 334.854,115.625 334.585 C 115.625 334.406,110.579 330.977,109.389 330.347 C 109.059 330.172,109.267 330.436,109.852 330.932 M287.891 332.066 C 284.163 334.571,283.432 335.316,286.633 333.346 C 289.027 331.872,291.406 330.111,291.016 330.101 C 290.908 330.099,289.502 330.983,287.891 332.066 M122.266 338.692 C 123.284 339.385,125.000 340.261,125.000 340.088 C 125.000 339.871,122.304 338.279,121.950 338.287 C 121.801 338.291,121.943 338.473,122.266 338.692 M276.462 339.029 C 274.900 340.030,274.612 340.436,275.977 339.712 C 277.613 338.845,278.390 338.289,277.930 338.316 C 277.715 338.328,277.054 338.649,276.462 339.029 M177.441 347.926 C 177.817 348.024,178.433 348.024,178.809 347.926 C 179.185 347.827,178.877 347.747,178.125 347.747 C 177.373 347.747,177.065 347.827,177.441 347.926 M221.191 347.926 C 221.567 348.024,222.183 348.024,222.559 347.926 C 222.935 347.827,222.627 347.747,221.875 347.747 C 221.123 347.747,220.815 347.827,221.191 347.926 M183.891 348.714 C 184.377 348.807,185.080 348.804,185.454 348.706 C 185.827 348.608,185.430 348.532,184.570 348.536 C 183.711 348.540,183.405 348.620,183.891 348.714 M214.751 348.714 C 215.237 348.807,215.940 348.804,216.313 348.706 C 216.687 348.608,216.289 348.532,215.430 348.536 C 214.570 348.540,214.265 348.620,214.751 348.714 M188.574 349.104 C 189.058 349.197,189.849 349.197,190.332 349.104 C 190.815 349.011,190.420 348.935,189.453 348.935 C 188.486 348.935,188.091 349.011,188.574 349.104 M209.668 349.104 C 210.151 349.197,210.942 349.197,211.426 349.104 C 211.909 349.011,211.514 348.935,210.547 348.935 C 209.580 348.935,209.185 349.011,209.668 349.104 M196.191 349.510 C 198.286 349.580,201.714 349.580,203.809 349.510 C 205.903 349.440,204.189 349.382,200.000 349.382 C 195.811 349.382,194.097 349.440,196.191 349.510 M179.594 357.698 C 180.080 357.792,180.783 357.788,181.157 357.690 C 181.530 357.592,181.133 357.516,180.273 357.520 C 179.414 357.525,179.108 357.605,179.594 357.698 M219.048 357.698 C 219.533 357.792,220.237 357.788,220.610 357.690 C 220.983 357.592,220.586 357.516,219.727 357.520 C 218.867 357.525,218.562 357.605,219.048 357.698 M182.520 358.082 C 182.896 358.180,183.511 358.180,183.887 358.082 C 184.263 357.984,183.955 357.903,183.203 357.903 C 182.451 357.903,182.144 357.984,182.520 358.082 M216.113 358.082 C 216.489 358.180,217.104 358.180,217.480 358.082 C 217.856 357.984,217.549 357.903,216.797 357.903 C 216.045 357.903,215.737 357.984,216.113 358.082 M187.402 358.486 C 188.101 358.572,189.243 358.572,189.941 358.486 C 190.640 358.399,190.068 358.328,188.672 358.328 C 187.275 358.328,186.704 358.399,187.402 358.486 M210.059 358.486 C 210.757 358.572,211.899 358.572,212.598 358.486 C 213.296 358.399,212.725 358.328,211.328 358.328 C 209.932 358.328,209.360 358.399,210.059 358.486 M195.996 358.885 C 198.198 358.955,201.802 358.955,204.004 358.885 C 206.206 358.815,204.404 358.759,200.000 358.759 C 195.596 358.759,193.794 358.815,195.996 358.885 " stroke="none" fill="#ccc78c" fill-rule="evenodd"></path><path id="path2" d="" stroke="none" fill="#e6d78e" fill-rule="evenodd"></path><path id="path3" d="" stroke="none" fill="#f4dc84" fill-rule="evenodd"></path><path id="path4" d="" stroke="none" fill="#dcc43c" fill-rule="evenodd"></path></g></svg>